<svg width="240" height="42" viewBox="0 0 240 42" fill="none" xmlns="http://www.w3.org/2000/svg">
  <g clip-path="url(#clip0_25_1504)">
    <path d="M45.5733 34.0339C47.4089 35.8585 47.4089 38.8077 45.5733 40.6323C43.7376 42.4569 40.7705 42.4569 38.9348 40.6323L23.4754 25.2646L8.01444 40.6323C7.11712 41.5242 5.91532 42 4.69449 42C4.08846 42 3.47805 41.888 2.89691 41.645C1.14471 40.9262 0 39.218 0 37.3338V4.66618C0 2.08647 2.10352 0 4.69449 0C7.28546 0 9.38898 2.08647 9.38898 4.66618V26.0678L20.1554 15.3662C20.6048 14.9137 21.1274 14.5776 21.6866 14.3492C22.2311 14.1251 22.8327 14 23.4607 14H42.2548C44.8458 14 46.9493 16.0865 46.9493 18.6662C46.9493 21.2459 44.8458 23.3338 42.2548 23.3338H34.8083L45.5747 34.0339H45.5733Z" fill="black" />
    <path d="M96.2494 28C96.2494 35.7188 89.9301 42 82.1645 42H63.3851C55.6195 42 49.3002 35.7188 49.3002 28C49.3002 20.2812 55.6195 14 63.3851 14H82.1645C89.9301 14 96.2494 20.2812 96.2494 28ZM86.8605 28C86.8605 25.4247 84.7525 23.3338 82.1645 23.3338H63.3851C60.7985 23.3338 58.6891 25.4247 58.6891 28C58.6891 30.5753 60.7971 32.6662 63.3851 32.6662H82.1645C84.7511 32.6662 86.8605 30.5768 86.8605 28Z" fill="black" />
    <path d="M147.308 4.66618V37.3324C147.308 39.2224 146.161 40.9262 144.411 41.6435C143.828 41.8865 143.218 41.9985 142.612 41.9985C141.391 41.9985 140.189 41.5271 139.292 40.6323L121.888 23.3338H114.442C111.855 23.3338 109.746 25.4247 109.746 28C109.746 30.5753 111.854 32.6662 114.442 32.6662H123.832C126.423 32.6662 128.527 34.7526 128.527 37.3324C128.527 39.9121 126.423 41.9985 123.832 41.9985H114.442C106.676 41.9985 100.357 35.7188 100.357 28C100.357 20.2812 106.676 14 114.442 14H123.832C125.077 14 126.274 14.4932 127.151 15.3677L137.916 26.0692V4.66618C137.916 2.08647 140.019 0 142.61 0C145.201 0 147.305 2.09083 147.305 4.66618H147.308Z" fill="black" />
    <path d="M187.599 40.6323C186.685 41.5431 185.483 41.9985 184.281 41.9985C183.079 41.9985 181.877 41.546 180.962 40.6323L163.558 23.3338H156.111C153.519 23.3338 151.415 21.2473 151.415 18.6662C151.415 16.085 153.519 14 156.111 14H165.502C166.746 14 167.942 14.4932 168.82 15.3677L187.599 34.0339C189.435 35.8584 189.435 38.8121 187.599 40.6323ZM160.807 4.66618C160.807 2.08938 162.909 0 165.503 0C168.097 0 170.197 2.08938 170.197 4.66618C170.197 7.24298 168.095 9.33236 165.503 9.33236C162.911 9.33236 160.807 7.24298 160.807 4.66618Z" fill="black" />
    <path d="M238.623 34.0336C240.458 35.8582 240.458 38.8075 238.623 40.6321C237.708 41.5429 236.506 41.9983 235.303 41.9983C234.099 41.9983 232.899 41.5458 231.984 40.6321L223.97 32.6659H209.078L201.064 40.6321C199.228 42.4566 196.261 42.4566 194.425 40.6321C192.59 38.8075 192.59 35.8582 194.425 34.0336L200.496 27.9998L194.425 21.9659C192.59 20.1413 192.59 17.192 194.425 15.3674C196.261 13.5429 199.228 13.5429 201.064 15.3674L209.078 23.3336H223.97L231.984 15.3674C233.82 13.5429 236.787 13.5429 238.623 15.3674C240.458 17.192 240.458 20.1413 238.623 21.9659L232.552 27.9998L238.623 34.0336Z" fill="#1FFF1A" />
  </g>
  <defs>
    <clipPath id="clip0_25_1504">
      <rect width="240" height="42" fill="white" />
    </clipPath>
  </defs>
</svg>