<svg width="24" height="24" viewBox="0 0 24 24" fill="none" xmlns="http://www.w3.org/2000/svg">
  <path d="M23.4187 12.2874C23.4187 18.2031 19.0349 23.0937 13.34 23.8873C12.8075 23.9612 12.2627 23.9998 11.7097 23.9998C11.0714 23.9998 10.4446 23.9489 9.83415 23.8504C4.25824 22.9525 0 18.1169 0 12.2874C0 5.81856 5.2428 0.574219 11.7089 0.574219C18.175 0.574219 23.4187 5.81856 23.4187 12.2874Z" fill="#1877F2" />
  <path d="M13.34 9.9785V12.5301H16.4955L15.9959 15.9672H13.34V23.8863C12.8075 23.9601 12.2627 23.9987 11.7097 23.9987C11.0714 23.9987 10.4446 23.9478 9.83416 23.8493V15.9672H6.92395V12.5301H9.83416V9.40811C9.83416 7.47123 11.4037 5.90039 13.3408 5.90039V5.90203C13.3466 5.90203 13.3515 5.90039 13.3573 5.90039H16.4964V8.87301H14.4452C13.8356 8.87301 13.3408 9.36789 13.3408 9.97768L13.34 9.9785Z" fill="white" />
</svg>