<svg xmlns="http://www.w3.org/2000/svg" width="43" height="26" viewBox="0 0 43 26" fill="none">
<rect x="1" y="1" width="41" height="24" rx="4" stroke="#1FFF1A"/>
<g clip-path="url(#clip0_25_1468)">
<path d="M9.95881 18V9.27273H13.0696C13.7486 9.27273 14.3111 9.39631 14.7571 9.64347C15.2031 9.89062 15.5369 10.2287 15.7585 10.6577C15.9801 11.0838 16.0909 11.5639 16.0909 12.098C16.0909 12.6349 15.9787 13.1179 15.7543 13.5469C15.5327 13.973 15.1974 14.3111 14.7486 14.5611C14.3026 14.8082 13.7415 14.9318 13.0653 14.9318H10.9261V13.8153H12.946C13.375 13.8153 13.723 13.7415 13.9901 13.5938C14.2571 13.4432 14.4531 13.2386 14.5781 12.9801C14.7031 12.7216 14.7656 12.4276 14.7656 12.098C14.7656 11.7685 14.7031 11.4759 14.5781 11.2202C14.4531 10.9645 14.2557 10.7642 13.9858 10.6193C13.7188 10.4744 13.3665 10.402 12.929 10.402H11.2756V18H9.95881ZM17.6346 18V9.27273H20.7454C21.4215 9.27273 21.9826 9.3892 22.4286 9.62216C22.8775 9.85511 23.2127 10.1776 23.4343 10.5895C23.6559 10.9986 23.7667 11.4716 23.7667 12.0085C23.7667 12.5426 23.6545 13.0128 23.43 13.419C23.2085 13.8224 22.8732 14.1364 22.4244 14.3608C21.9783 14.5852 21.4173 14.6974 20.7411 14.6974H18.3846V13.5639H20.6218C21.0479 13.5639 21.3945 13.5028 21.6616 13.3807C21.9315 13.2585 22.1289 13.081 22.2539 12.848C22.3789 12.6151 22.4414 12.3352 22.4414 12.0085C22.4414 11.679 22.3775 11.3935 22.2496 11.152C22.1246 10.9105 21.9272 10.7259 21.6573 10.598C21.3903 10.4673 21.0394 10.402 20.6048 10.402H18.9513V18H17.6346ZM21.9428 14.0625L24.0991 18H22.5991L20.4854 14.0625H21.9428ZM32.9499 13.6364C32.9499 14.5682 32.7795 15.3693 32.4386 16.0398C32.0977 16.7074 31.6303 17.2216 31.0366 17.5824C30.4457 17.9403 29.7738 18.1193 29.021 18.1193C28.2653 18.1193 27.5906 17.9403 26.9968 17.5824C26.4059 17.2216 25.94 16.706 25.5991 16.0355C25.2582 15.3651 25.0877 14.5653 25.0877 13.6364C25.0877 12.7045 25.2582 11.9048 25.5991 11.2372C25.94 10.5668 26.4059 10.0526 26.9968 9.6946C27.5906 9.33381 28.2653 9.15341 29.021 9.15341C29.7738 9.15341 30.4457 9.33381 31.0366 9.6946C31.6303 10.0526 32.0977 10.5668 32.4386 11.2372C32.7795 11.9048 32.9499 12.7045 32.9499 13.6364ZM31.646 13.6364C31.646 12.9261 31.5309 12.3281 31.3008 11.8423C31.0735 11.3537 30.761 10.9844 30.3633 10.7344C29.9684 10.4815 29.521 10.3551 29.021 10.3551C28.5181 10.3551 28.0692 10.4815 27.6744 10.7344C27.2795 10.9844 26.967 11.3537 26.7369 11.8423C26.5096 12.3281 26.396 12.9261 26.396 13.6364C26.396 14.3466 26.5096 14.946 26.7369 15.4347C26.967 15.9205 27.2795 16.2898 27.6744 16.5426C28.0692 16.7926 28.5181 16.9176 29.021 16.9176C29.521 16.9176 29.9684 16.7926 30.3633 16.5426C30.761 16.2898 31.0735 15.9205 31.3008 15.4347C31.5309 14.946 31.646 14.3466 31.646 13.6364Z" fill="#1FFF1A"/>
</g>
<defs>
<clipPath id="clip0_25_1468">
<rect width="25" height="15" fill="white" transform="translate(9 6)"/>
</clipPath>
</defs>
</svg>