<svg width="24" height="24" viewBox="0 0 24 24" fill="none" xmlns="http://www.w3.org/2000/svg">
  <path d="M23.7413 12.2874C23.7413 18.2031 19.3576 23.0937 13.6627 23.8873C13.1302 23.9612 12.5854 23.9998 12.0324 23.9998C11.3941 23.9998 10.7672 23.9489 10.1568 23.8504C4.58172 22.9525 0.323486 18.1169 0.323486 12.2874C0.323486 5.81856 5.56628 0.574219 12.0332 0.574219C18.5002 0.574219 23.743 5.81856 23.743 12.2874H23.7413Z" fill="#1C1C1B" />
  <path d="M5.07234 5.74023L10.4727 12.9625L5.0387 18.8347H6.26202L11.0199 13.6937L14.8638 18.8347H19.0261L13.3222 11.2062L18.3803 5.74023H17.157L12.7757 10.4749L9.2354 5.74023H5.07315H5.07234ZM6.8708 6.64138H8.7825L17.226 17.9335H15.3143L6.8708 6.64138Z" fill="white" />
</svg>