<svg width="24" height="24" viewBox="0 0 24 24" fill="none" xmlns="http://www.w3.org/2000/svg">
  <path d="M24 12.2538C24 5.80333 18.7725 0.574219 12.3239 0.574219C5.8754 0.574219 0.647827 5.80333 0.647827 12.2538C0.647827 18.7042 5.8754 23.9333 12.3239 23.9333C18.7725 23.9333 24 18.7042 24 12.2538Z" fill="#FF0209" />
  <path d="M17.2804 17.427C16.9325 17.4648 16.5764 17.4713 16.2351 17.4705C13.5727 17.468 10.9102 17.4656 8.24863 17.4639C7.41093 17.4639 6.49857 17.4368 5.85122 16.9042C5.12182 16.3026 4.97004 15.2595 4.91096 14.3157C4.82892 13.0222 4.82235 11.7247 4.88963 10.4304C4.92655 9.7197 4.99137 8.99173 5.2974 8.34829C5.51729 7.88623 5.88404 7.47095 6.35335 7.25264C6.89896 6.99905 7.47001 7.04418 8.05746 7.04336C9.46375 7.04172 10.87 7.0409 12.2763 7.03926C13.7384 7.03762 15.2013 7.0368 16.6634 7.03516C17.3542 7.03516 18.0959 7.04911 18.6596 7.44879C19.3873 7.9642 19.5851 8.94495 19.6761 9.83214C19.8443 11.4662 19.8468 13.1174 19.6827 14.7515C19.6146 15.4253 19.5014 16.1377 19.0575 16.649C18.6177 17.1562 17.9655 17.3515 17.2812 17.4262L17.2804 17.427Z" fill="white" />
  <path d="M14.7049 12.2543L10.7371 9.96289V14.5457L14.7049 12.2543Z" fill="#FF0209" />
</svg>